<svg width="369" height="70" viewBox="0 0 369 70" fill="none" xmlns="http://www.w3.org/2000/svg">
<rect width="369" height="70" rx="10" fill="white"/>
<path fill-rule="evenodd" clip-rule="evenodd" d="M52.0942 21.1943C52.5646 20.7072 53.1274 20.3187 53.7496 20.0514C54.3718 19.7841 55.0411 19.6434 55.7182 19.6376C56.3954 19.6317 57.067 19.7607 57.6938 20.0171C58.3205 20.2736 58.89 20.6523 59.3688 21.1311C59.8477 21.61 60.2263 22.1794 60.4828 22.8062C60.7392 23.4329 60.8683 24.1045 60.8624 24.7817C60.8565 25.4589 60.7158 26.1281 60.4485 26.7503C60.1812 27.3725 59.7927 27.9353 59.3056 28.4057L51.6556 36.0557C50.6992 37.0118 49.4022 37.5489 48.0499 37.5489C46.6976 37.5489 45.4006 37.0118 44.4442 36.0557C43.9633 35.5912 43.3191 35.3342 42.6505 35.34C41.9819 35.3458 41.3423 35.614 40.8696 36.0868C40.3968 36.5596 40.1286 37.1992 40.1228 37.8678C40.117 38.5364 40.374 39.1805 40.8385 39.6614C42.7513 41.5736 45.3452 42.6479 48.0499 42.6479C50.7546 42.6479 53.3485 41.5736 55.2613 39.6614L62.9113 32.0114C64.7693 30.0877 65.7974 27.5111 65.7742 24.8367C65.7509 22.1623 64.6782 19.604 62.787 17.7129C60.8959 15.8217 58.3376 14.749 55.6632 14.7258C52.9888 14.7025 50.4122 15.7306 48.4885 17.5886L44.6635 21.4136C44.4199 21.6489 44.2257 21.9302 44.092 22.2414C43.9584 22.5525 43.888 22.8871 43.8851 23.2257C43.8822 23.5642 43.9467 23.9 44.0749 24.2134C44.2031 24.5268 44.3925 24.8115 44.6319 25.0509C44.8713 25.2904 45.156 25.4797 45.4694 25.6079C45.7828 25.7361 46.1186 25.8007 46.4572 25.7977C46.7957 25.7948 47.1304 25.7244 47.4415 25.5908C47.7526 25.4571 48.034 25.2629 48.2692 25.0193L52.0942 21.1943ZM39.3442 33.9443C40.3006 32.9882 41.5976 32.4511 42.9499 32.4511C44.3022 32.4511 45.5992 32.9882 46.5556 33.9443C46.7908 34.1879 47.0722 34.3821 47.3833 34.5158C47.6944 34.6494 48.029 34.7198 48.3676 34.7227C48.7062 34.7257 49.042 34.6611 49.3554 34.5329C49.6688 34.4047 49.9535 34.2154 50.1929 33.9759C50.4323 33.7365 50.6217 33.4518 50.7499 33.1384C50.8781 32.825 50.9426 32.4892 50.9397 32.1507C50.9367 31.8121 50.8664 31.4775 50.7327 31.1664C50.5991 30.8552 50.4048 30.5739 50.1613 30.3386C48.2485 28.4264 45.6546 27.3522 42.9499 27.3522C40.2452 27.3522 37.6513 28.4264 35.7385 30.3386L28.0885 37.9886C27.1143 38.9296 26.3372 40.0551 25.8027 41.2995C25.2681 42.5439 24.9867 43.8824 24.9749 45.2367C24.9632 46.5911 25.2212 47.9342 25.7341 49.1878C26.247 50.4413 27.0044 51.5802 27.9621 52.5379C28.9198 53.4956 30.0586 54.253 31.3122 54.7658C32.5657 55.2787 33.9088 55.5368 35.2632 55.525C36.6175 55.5132 37.956 55.2318 39.2004 54.6973C40.4449 54.1627 41.5704 53.3856 42.5113 52.4114L46.3363 48.5864C46.5798 48.3512 46.7741 48.0698 46.9077 47.7587C47.0414 47.4476 47.1117 47.113 47.1147 46.7744C47.1176 46.4358 47.0531 46.1 46.9249 45.7867C46.7967 45.4733 46.6073 45.1886 46.3679 44.9491C46.1285 44.7097 45.8438 44.5204 45.5304 44.3921C45.217 44.2639 44.8812 44.1994 44.5426 44.2023C44.204 44.2053 43.8694 44.2756 43.5583 44.4093C43.2472 44.5429 42.9658 44.7372 42.7306 44.9807L38.9056 48.8057C38.4351 49.2928 37.8724 49.6814 37.2502 49.9487C36.6279 50.2159 35.9587 50.3566 35.2815 50.3625C34.6044 50.3684 33.9328 50.2394 33.306 49.9829C32.6793 49.7265 32.1098 49.3478 31.631 48.8689C31.1521 48.3901 30.7734 47.8207 30.517 47.1939C30.2606 46.5671 30.1315 45.8956 30.1374 45.2184C30.1433 44.5412 30.284 43.872 30.5513 43.2498C30.8186 42.6276 31.2071 42.0648 31.6942 41.5943L39.3442 33.9443Z" fill="black"/>
<path d="M85.68 45L89.474 25.4H91.826L96.852 38.602L101.85 25.4H104.202L108.01 45H105.042L102.508 31.882L97.818 44.258H95.858L91.182 31.882L88.648 45H85.68ZM119.387 31H122.495L114.823 52H111.729L114.263 45L109.237 31H112.415L115.719 41.01L119.387 31ZM132.028 45V25.4H134.94V42.088H143.382V45H132.028ZM146.465 31H149.377V45H146.465V31ZM147.949 28.97C147.501 28.97 147.128 28.8253 146.829 28.536C146.53 28.2467 146.381 27.8827 146.381 27.444C146.381 27.0147 146.53 26.6553 146.829 26.366C147.128 26.0673 147.496 25.918 147.935 25.918C148.364 25.918 148.728 26.0673 149.027 26.366C149.326 26.6553 149.475 27.0147 149.475 27.444C149.475 27.8827 149.326 28.2467 149.027 28.536C148.738 28.8253 148.378 28.97 147.949 28.97ZM165.218 36.222V45H162.306V36.936C162.306 36.3107 162.152 35.7413 161.844 35.228C161.545 34.7147 161.139 34.3087 160.626 34.01C160.122 33.702 159.552 33.548 158.918 33.548C158.302 33.548 157.737 33.702 157.224 34.01C156.71 34.3087 156.3 34.7147 155.992 35.228C155.684 35.7413 155.53 36.3107 155.53 36.936V45H152.618V31H155.53V32.484C156.015 31.9053 156.612 31.448 157.322 31.112C158.031 30.776 158.796 30.608 159.618 30.608C160.654 30.608 161.596 30.86 162.446 31.364C163.295 31.868 163.967 32.5447 164.462 33.394C164.966 34.2433 165.218 35.186 165.218 36.222ZM180.091 45H176.731L173.287 39.064L171.033 41.752V45H168.121V24H171.033V37.23L176.241 31H180.049L175.275 36.698L180.091 45ZM186.349 45.266C185.611 45.2193 184.893 45.07 184.193 44.818C183.493 44.566 182.877 44.2253 182.345 43.796C181.822 43.3573 181.43 42.844 181.169 42.256L183.647 41.192C183.768 41.444 183.978 41.6913 184.277 41.934C184.585 42.1767 184.944 42.3773 185.355 42.536C185.765 42.6853 186.195 42.76 186.643 42.76C187.081 42.76 187.487 42.6993 187.861 42.578C188.243 42.4473 188.556 42.2513 188.799 41.99C189.041 41.7287 189.163 41.416 189.163 41.052C189.163 40.6413 189.023 40.324 188.743 40.1C188.472 39.8667 188.131 39.6893 187.721 39.568C187.31 39.4467 186.899 39.33 186.489 39.218C185.574 39.0127 184.734 38.7327 183.969 38.378C183.213 38.014 182.611 37.552 182.163 36.992C181.715 36.4227 181.491 35.7273 181.491 34.906C181.491 34.01 181.733 33.2353 182.219 32.582C182.704 31.9193 183.339 31.4107 184.123 31.056C184.916 30.7013 185.761 30.524 186.657 30.524C187.777 30.524 188.803 30.762 189.737 31.238C190.67 31.714 191.384 32.3673 191.879 33.198L189.569 34.57C189.429 34.29 189.219 34.038 188.939 33.814C188.659 33.59 188.341 33.4127 187.987 33.282C187.632 33.142 187.263 33.0627 186.881 33.044C186.405 33.0253 185.961 33.0813 185.551 33.212C185.149 33.3333 184.827 33.5293 184.585 33.8C184.342 34.0707 184.221 34.416 184.221 34.836C184.221 35.2467 184.365 35.5547 184.655 35.76C184.944 35.956 185.308 36.1147 185.747 36.236C186.195 36.3573 186.652 36.4927 187.119 36.642C187.949 36.9033 188.729 37.2253 189.457 37.608C190.185 37.9813 190.773 38.4433 191.221 38.994C191.669 39.5447 191.883 40.2167 191.865 41.01C191.865 41.8873 191.599 42.6573 191.067 43.32C190.544 43.9827 189.863 44.4867 189.023 44.832C188.183 45.1773 187.291 45.322 186.349 45.266Z" fill="black"/>
</svg>
